<?xml version="1.0" encoding="utf-8"?>
<!-- Generator: Adobe Illustrator 15.0.2, SVG Export Plug-In . SVG Version: 6.00 Build 0)  -->
<!DOCTYPE svg PUBLIC "-//W3C//DTD SVG 1.1//EN" "http://www.w3.org/Graphics/SVG/1.1/DTD/svg11.dtd">
<svg version="1.1" id="Layer_1" xmlns="http://www.w3.org/2000/svg" xmlns:xlink="http://www.w3.org/1999/xlink" x="0px" y="0px"
	 width="150.034px" height="70.016px" viewBox="0 0 150.034 70.016" enable-background="new 0 0 150.034 70.016"
	 xml:space="preserve">
<g>
	<g>
		<linearGradient id="SVGID_1_" gradientUnits="userSpaceOnUse" x1="75.2378" y1="24.9849" x2="75.2378" y2="39.303">
			<stop  offset="0" style="stop-color:#7ED3F7"/>
			<stop  offset="0.0798" style="stop-color:#6EB7DC"/>
			<stop  offset="0.9202" style="stop-color:#00A3D7"/>
			<stop  offset="1" style="stop-color:#00A2D0"/>
		</linearGradient>
		<path fill="url(#SVGID_1_)" d="M2.238,45.508c-0.827,0-1.5-0.673-1.5-1.5v-18c0-0.827,0.673-1.5,1.5-1.5h146
			c0.827,0,1.5,0.673,1.5,1.5v18c0,0.827-0.673,1.5-1.5,1.5H2.238z"/>
		<path fill="#15729B" d="M148.238,25.008c0.552,0,1,0.449,1,1v18c0,0.551-0.448,1-1,1h-146c-0.551,0-1-0.449-1-1v-18
			c0-0.551,0.449-1,1-1H148.238 M148.238,24.008h-146c-1.1,0-2,0.9-2,2v18c0,1.1,0.9,2,2,2h146c1.1,0,2-0.9,2-2v-18
			C150.238,24.908,149.338,24.008,148.238,24.008L148.238,24.008z"/>
	</g>
	<g>
		<text transform="matrix(1 0 0 1 25.519 38.7598)" fill="#136A91" font-family="'Verdana'" font-size="10">Sign in with Foursquare</text>
	</g>
	
		<text transform="matrix(1 0 0 1 25.0938 38.4199)" fill="#FFFFFF" stroke="#FFFFFF" stroke-width="0.25" stroke-miterlimit="10" font-family="'Verdana'" font-size="10">Sign in with Foursquare</text>
	<g>
		<g>
			<path fill-rule="evenodd" clip-rule="evenodd" fill="#1C6FB7" d="M11.319,29.702l5.038,5.038c0.403,0.403,0.403,1.057,0,1.46
				l-5.038,5.037c-0.403,0.403-1.057,0.403-1.46,0L4.821,36.2c-0.403-0.403-0.403-1.057,0-1.46l5.038-5.038
				C10.262,29.299,10.916,29.299,11.319,29.702z"/>
		</g>
		<defs>
			<filter id="Adobe_OpacityMaskFilter" filterUnits="userSpaceOnUse" x="4.519" y="29.399" width="12.141" height="12.141">
				
					<feColorMatrix  type="matrix" values="-1 0 0 0 1  0 -1 0 0 1  0 0 -1 0 1  0 0 0 1 0" color-interpolation-filters="sRGB" result="source"/>
			</filter>
		</defs>
		<mask maskUnits="userSpaceOnUse" x="4.519" y="29.399" width="12.141" height="12.141" id="SVGID_2_">
			<g filter="url(#Adobe_OpacityMaskFilter)">
				<image overflow="visible" width="17" height="18" xlink:href="5176818D.jpg"  transform="matrix(1 0 0 1 2 26.5)">
				</image>
			</g>
		</mask>
		<g opacity="0.21" mask="url(#SVGID_2_)">
			<path fill-rule="evenodd" clip-rule="evenodd" d="M11.319,29.702l5.038,5.038c0.403,0.403,0.403,1.057,0,1.46l-5.038,5.037
				c-0.403,0.403-1.057,0.403-1.46,0L4.821,36.2c-0.403-0.403-0.403-1.057,0-1.46l5.038-5.038
				C10.262,29.299,10.916,29.299,11.319,29.702z"/>
		</g>
	</g>
	<linearGradient id="SVGID_3_" gradientUnits="userSpaceOnUse" x1="10.5396" y1="24.2559" x2="10.5396" y2="34.8715">
		<stop  offset="0.0012" style="stop-color:#FFFFFF"/>
		<stop  offset="1" style="stop-color:#808080"/>
	</linearGradient>
	<path opacity="0.33" fill="url(#SVGID_3_)" d="M21.284,33.236v-8.966H-0.204v9.097c2.948,1.021,6.599,1.627,10.557,1.627
		C14.478,34.994,18.274,34.338,21.284,33.236z"/>
	<g>
		<path fill="#1F70B7" d="M18.272,24.263l-7.489,10.453c-0.267,0.37-0.503,0.024-0.503,0.024l-0.802-1.062
			c0.405-1.18,0.254-2.53-0.526-3.622c-1.283-1.795-3.776-2.21-5.571-0.928s-2.21,3.776-0.928,5.57
			c1.026,1.436,2.826,1.985,4.423,1.493l3.42,2.802c0,0,0.207,0.192,0.436,0.007l10.583-8.883v-5.855H18.272z"/>
	</g>
	
		<radialGradient id="SVGID_4_" cx="3380.0088" cy="31.9351" r="2.9075" gradientTransform="matrix(-1 0 0 1 3385.3438 0)" gradientUnits="userSpaceOnUse">
		<stop  offset="0" style="stop-color:#C51689"/>
		<stop  offset="1" style="stop-color:#781B56"/>
	</radialGradient>
	<path fill="url(#SVGID_4_)" d="M4.603,34.665c-0.385-0.009-0.75-0.091-1.086-0.23c0.528,0.522,1.248,0.854,2.049,0.873
		c1.665,0.04,3.049-1.277,3.089-2.942c0.031-1.281-0.741-2.395-1.857-2.86c0.57,0.565,0.915,1.354,0.894,2.218
		C7.652,33.389,6.268,34.706,4.603,34.665z"/>
	<path fill="#FFFFFF" d="M18.939,24.263l-8.166,11.21c-0.233,0.26-0.438,0.123-0.52,0.026c-0.082-0.096-4.648-6.095-4.648-6.095
		L2.84,32.378l7.471,6.009c0,0,0.183,0.169,0.385,0.006l10.62-8.962v-5.168H18.939z"/>
	
		<radialGradient id="SVGID_5_" cx="2382.9697" cy="-903.5439" r="3.7451" gradientTransform="matrix(-0.6314 -0.7755 0.7755 -0.6314 2209.6467 1309.7159)" gradientUnits="userSpaceOnUse">
		<stop  offset="0.0773" style="stop-color:#E6F4B0"/>
		<stop  offset="0.1869" style="stop-color:#E1F2A3"/>
		<stop  offset="0.3877" style="stop-color:#D5EB82"/>
		<stop  offset="0.6571" style="stop-color:#C1E04D"/>
		<stop  offset="0.9819" style="stop-color:#A5D203"/>
		<stop  offset="0.9948" style="stop-color:#A4D100"/>
	</radialGradient>
	<circle fill="url(#SVGID_5_)" cx="5.704" cy="32.378" r="3.55"/>
	<circle fill="#91BD15" cx="7.365" cy="34.438" r="0.313"/>
	<circle fill="#91BD15" cx="6.687" cy="33.605" r="0.312"/>
	<circle fill="#91BD15" cx="6.009" cy="32.773" r="0.313"/>
	<circle fill="#91BD15" cx="5.331" cy="31.941" r="0.313"/>
	<circle fill="#91BD15" cx="4.654" cy="31.109" r="0.313"/>
	<circle fill="#91BD15" cx="3.977" cy="30.276" r="0.313"/>
	<path fill="#91BD15" d="M6.515,35.128c-0.108-0.134-0.306-0.153-0.439-0.045c-0.115,0.094-0.145,0.251-0.084,0.379
		c0.2-0.021,0.398-0.06,0.593-0.12C6.589,35.268,6.566,35.19,6.515,35.128z"/>
	<circle fill="#91BD15" cx="5.595" cy="34.494" r="0.313"/>
	<circle fill="#91BD15" cx="4.918" cy="33.662" r="0.313"/>
	<circle fill="#91BD15" cx="4.24" cy="32.83" r="0.313"/>
	<circle fill="#91BD15" cx="3.562" cy="31.998" r="0.313"/>
	<path fill="#91BD15" d="M3.083,31.407c0.135-0.108,0.154-0.306,0.046-0.44c-0.047-0.057-0.11-0.092-0.177-0.106
		c-0.1,0.18-0.18,0.369-0.241,0.562C2.821,31.499,2.973,31.497,3.083,31.407z"/>
	<path fill="#91BD15" d="M6.96,35.055c-0.063,0.051-0.099,0.12-0.111,0.194c0.155-0.063,0.307-0.14,0.452-0.229
		C7.194,34.965,7.06,34.975,6.96,35.055z"/>
	<circle fill="#91BD15" cx="6.48" cy="34.465" r="0.313"/>
	<circle fill="#91BD15" cx="5.802" cy="33.633" r="0.313"/>
	<circle fill="#91BD15" cx="5.125" cy="32.801" r="0.313"/>
	<circle fill="#91BD15" cx="4.447" cy="31.969" r="0.313"/>
	<circle fill="#91BD15" cx="3.77" cy="31.137" r="0.313"/>
	<path fill="#91BD15" d="M3.289,30.547c0.093-0.075,0.13-0.193,0.109-0.303c-0.11,0.117-0.209,0.242-0.297,0.372
		C3.167,30.614,3.234,30.592,3.289,30.547z"/>
	<path fill="#91BD15" d="M8.052,34.166c-0.101,0.082-0.136,0.211-0.104,0.327c0.117-0.124,0.222-0.257,0.315-0.396
		C8.188,34.095,8.114,34.116,8.052,34.166z"/>
	<circle fill="#91BD15" cx="7.571" cy="33.577" r="0.314"/>
	<circle fill="#91BD15" cx="6.894" cy="32.745" r="0.313"/>
	<circle fill="#91BD15" cx="6.216" cy="31.913" r="0.313"/>
	<circle fill="#91BD15" cx="5.539" cy="31.081" r="0.313"/>
	<circle fill="#91BD15" cx="4.861" cy="30.248" r="0.313"/>
	<path fill="#91BD15" d="M4.381,29.659c0.056-0.046,0.091-0.106,0.105-0.171c-0.145,0.06-0.287,0.132-0.423,0.215
		C4.166,29.746,4.288,29.734,4.381,29.659z"/>
	<path fill="#91BD15" d="M8.626,32.026c0.042,0.05,0.096,0.084,0.153,0.102c-0.014-0.186-0.044-0.371-0.092-0.553
		c-0.005,0.004-0.012,0.006-0.016,0.011C8.538,31.694,8.518,31.892,8.626,32.026z"/>
	<path fill="#91BD15" d="M7.994,30.753c-0.134,0.109-0.154,0.307-0.045,0.44c0.109,0.134,0.307,0.154,0.441,0.045
		c0.061-0.049,0.096-0.116,0.109-0.187c-0.055-0.117-0.116-0.231-0.187-0.344C8.209,30.665,8.087,30.678,7.994,30.753z"/>
	<path fill="#91BD15" d="M7.316,29.921c-0.134,0.109-0.154,0.307-0.044,0.44c0.109,0.134,0.306,0.154,0.44,0.045
		c0.092-0.074,0.128-0.189,0.109-0.298c-0.098-0.093-0.2-0.178-0.307-0.256C7.444,29.853,7.375,29.874,7.316,29.921z"/>
	<path fill="#91BD15" d="M7.034,29.574c0.003-0.002,0.005-0.005,0.007-0.007c-0.166-0.081-0.338-0.146-0.515-0.196
		c0.008,0.056,0.029,0.111,0.067,0.158C6.704,29.664,6.9,29.684,7.034,29.574z"/>
	<path fill="#91BD15" d="M8.258,33.307c-0.134,0.108-0.155,0.306-0.045,0.44c0.051,0.062,0.121,0.099,0.195,0.11
		c0.098-0.179,0.177-0.365,0.237-0.557C8.533,33.215,8.373,33.213,8.258,33.307z"/>
	<circle fill="#91BD15" cx="7.778" cy="32.717" r="0.313"/>
	<circle fill="#91BD15" cx="7.1" cy="31.884" r="0.313"/>
	<circle fill="#91BD15" cx="6.423" cy="31.052" r="0.313"/>
	<circle fill="#91BD15" cx="5.746" cy="30.22" r="0.313"/>
	<path fill="#91BD15" d="M4.825,29.586c0.109,0.134,0.307,0.153,0.441,0.044c0.11-0.089,0.141-0.236,0.09-0.361
		c-0.203,0.021-0.403,0.062-0.6,0.122C4.756,29.459,4.778,29.528,4.825,29.586z"/>
	<path fill="#91BD15" d="M8.465,32.446c-0.134,0.109-0.155,0.306-0.045,0.439c0.076,0.094,0.195,0.131,0.305,0.108
		c0.04-0.195,0.061-0.393,0.063-0.591C8.684,32.357,8.559,32.369,8.465,32.446z"/>
	<circle fill="#91BD15" cx="7.985" cy="31.856" r="0.313"/>
	<circle fill="#91BD15" cx="7.308" cy="31.024" r="0.313"/>
	<circle fill="#91BD15" cx="6.63" cy="30.192" r="0.313"/>
	<path fill="#91BD15" d="M5.71,29.558c0.109,0.134,0.306,0.154,0.44,0.045c0.09-0.073,0.127-0.188,0.109-0.294
		c-0.198-0.038-0.399-0.057-0.6-0.056C5.623,29.353,5.638,29.469,5.71,29.558z"/>
	<path fill="#91BD15" d="M4.747,35.185c-0.109-0.134-0.307-0.154-0.44-0.045c-0.005,0.005-0.01,0.01-0.015,0.014
		c0.17,0.084,0.345,0.151,0.524,0.203C4.811,35.296,4.789,35.235,4.747,35.185z"/>
	<path fill="#91BD15" d="M4.024,34.792c0.135-0.108,0.154-0.306,0.045-0.439c-0.109-0.134-0.307-0.154-0.44-0.045
		c-0.093,0.075-0.13,0.193-0.108,0.303c0.094,0.092,0.194,0.175,0.297,0.251C3.889,34.863,3.963,34.843,4.024,34.792z"/>
	<path fill="#91BD15" d="M3.347,33.961c0.134-0.109,0.153-0.307,0.044-0.44s-0.306-0.154-0.44-0.046
		c-0.059,0.048-0.094,0.112-0.108,0.181c0.054,0.119,0.116,0.237,0.188,0.351C3.133,34.048,3.254,34.036,3.347,33.961z"/>
	<path fill="#91BD15" d="M2.714,32.688c-0.039-0.048-0.089-0.08-0.143-0.099c0.013,0.183,0.043,0.365,0.088,0.544
		c0.002-0.002,0.005-0.004,0.009-0.006C2.803,33.019,2.823,32.822,2.714,32.688z"/>
	<path fill="#91BD15" d="M5.631,35.156c-0.109-0.134-0.306-0.153-0.44-0.045c-0.094,0.077-0.131,0.197-0.107,0.309
		c0.194,0.038,0.393,0.058,0.591,0.058C5.719,35.374,5.707,35.25,5.631,35.156z"/>
	<circle fill="#91BD15" cx="4.71" cy="34.522" r="0.313"/>
	<circle fill="#91BD15" cx="4.033" cy="33.69" r="0.313"/>
	<circle fill="#91BD15" cx="3.356" cy="32.858" r="0.313"/>
	<path fill="#91BD15" d="M2.876,32.268c0.134-0.108,0.154-0.306,0.045-0.439c-0.072-0.089-0.184-0.127-0.289-0.11
		c-0.042,0.196-0.064,0.396-0.067,0.598C2.666,32.355,2.786,32.342,2.876,32.268z"/>
	<circle fill="none" stroke="#A4D100" stroke-width="2.7036" stroke-miterlimit="10" cx="5.704" cy="32.377" r="3.342"/>
	<linearGradient id="SVGID_6_" gradientUnits="userSpaceOnUse" x1="21.6416" y1="45.6753" x2="21.6416" y2="23.8388">
		<stop  offset="0" style="stop-color:#2EADDB;stop-opacity:0"/>
		<stop  offset="1" style="stop-color:#15729B"/>
	</linearGradient>
	<rect x="21.142" y="24.169" fill="url(#SVGID_6_)" width="1" height="21.083"/>
</g>
<g>
	<g>
		<linearGradient id="SVGID_7_" gradientUnits="userSpaceOnUse" x1="75.2378" y1="0.9771" x2="75.2378" y2="15.2952">
			<stop  offset="0" style="stop-color:#7ED3F7"/>
			<stop  offset="0.0798" style="stop-color:#2EADDB"/>
			<stop  offset="0.9202" style="stop-color:#1887C1"/>
			<stop  offset="1" style="stop-color:#197FB5"/>
		</linearGradient>
		<path fill="url(#SVGID_7_)" d="M2.238,21.5c-0.827,0-1.5-0.673-1.5-1.5V2c0-0.827,0.673-1.5,1.5-1.5h146
			c0.827,0,1.5,0.673,1.5,1.5v18c0,0.827-0.673,1.5-1.5,1.5H2.238z"/>
		<path fill="#15729B" d="M148.238,1c0.552,0,1,0.449,1,1v18c0,0.551-0.448,1-1,1h-146c-0.551,0-1-0.449-1-1V2c0-0.551,0.449-1,1-1
			H148.238 M148.238,0h-146c-1.1,0-2,0.9-2,2v18c0,1.1,0.9,2,2,2h146c1.1,0,2-0.9,2-2V2C150.238,0.9,149.338,0,148.238,0L148.238,0z
			"/>
	</g>
	<g>
		<text transform="matrix(1 0 0 1 25.519 14.752)" fill="#136A91" font-family="'Verdana'" font-size="10">Sign in with Foursquare</text>
	</g>
	
		<text transform="matrix(1 0 0 1 25.0938 14.4121)" fill="#FFFFFF" stroke="#FFFFFF" stroke-width="0.25" stroke-miterlimit="10" font-family="'Verdana'" font-size="10">Sign in with Foursquare</text>
	<g>
		<g>
			<path fill-rule="evenodd" clip-rule="evenodd" fill="#1C6FB7" d="M11.319,5.694l5.038,5.038c0.403,0.403,0.403,1.057,0,1.46
				l-5.038,5.037c-0.403,0.403-1.057,0.403-1.46,0l-5.038-5.037c-0.403-0.403-0.403-1.057,0-1.46l5.038-5.038
				C10.262,5.291,10.916,5.291,11.319,5.694z"/>
		</g>
		<defs>
			<filter id="Adobe_OpacityMaskFilter_1_" filterUnits="userSpaceOnUse" x="4.519" y="5.392" width="12.141" height="12.141">
				
					<feColorMatrix  type="matrix" values="-1 0 0 0 1  0 -1 0 0 1  0 0 -1 0 1  0 0 0 1 0" color-interpolation-filters="sRGB" result="source"/>
			</filter>
		</defs>
		<mask maskUnits="userSpaceOnUse" x="4.519" y="5.392" width="12.141" height="12.141" id="SVGID_8_">
			<g filter="url(#Adobe_OpacityMaskFilter_1_)">
				<image overflow="visible" width="17" height="18" xlink:href="51768193.jpg"  transform="matrix(1 0 0 1 2 2.5)">
				</image>
			</g>
		</mask>
		<g opacity="0.21" mask="url(#SVGID_8_)">
			<path fill-rule="evenodd" clip-rule="evenodd" d="M11.319,5.694l5.038,5.038c0.403,0.403,0.403,1.057,0,1.46l-5.038,5.037
				c-0.403,0.403-1.057,0.403-1.46,0l-5.038-5.037c-0.403-0.403-0.403-1.057,0-1.46l5.038-5.038
				C10.262,5.291,10.916,5.291,11.319,5.694z"/>
		</g>
	</g>
	<linearGradient id="SVGID_9_" gradientUnits="userSpaceOnUse" x1="10.5396" y1="0.248" x2="10.5396" y2="10.8637">
		<stop  offset="0.0012" style="stop-color:#FFFFFF"/>
		<stop  offset="1" style="stop-color:#808080"/>
	</linearGradient>
	<path opacity="0.33" fill="url(#SVGID_9_)" d="M21.284,9.229V0.263H-0.204v9.097c2.948,1.021,6.599,1.627,10.557,1.627
		C14.478,10.986,18.274,10.33,21.284,9.229z"/>
	<g>
		<path fill="#1F70B7" d="M18.272,0.255l-7.489,10.453c-0.267,0.37-0.503,0.024-0.503,0.024L9.479,9.671
			c0.405-1.18,0.254-2.53-0.526-3.622C7.67,4.254,5.176,3.839,3.382,5.121s-2.21,3.776-0.928,5.57
			c1.026,1.436,2.826,1.985,4.423,1.493l3.42,2.802c0,0,0.207,0.192,0.436,0.007L21.316,6.11V0.255H18.272z"/>
	</g>
	
		<radialGradient id="SVGID_10_" cx="3380.0088" cy="7.9272" r="2.9075" gradientTransform="matrix(-1 0 0 1 3385.3438 0)" gradientUnits="userSpaceOnUse">
		<stop  offset="0" style="stop-color:#C51689"/>
		<stop  offset="1" style="stop-color:#781B56"/>
	</radialGradient>
	<path fill="url(#SVGID_10_)" d="M4.603,10.657c-0.385-0.009-0.75-0.091-1.086-0.23c0.528,0.522,1.248,0.854,2.049,0.873
		c1.665,0.04,3.049-1.277,3.089-2.942c0.031-1.281-0.741-2.395-1.857-2.86c0.57,0.565,0.915,1.354,0.894,2.218
		C7.652,9.381,6.268,10.698,4.603,10.657z"/>
	<path fill="#FFFFFF" d="M18.939,0.255l-8.166,11.21c-0.233,0.26-0.438,0.123-0.52,0.026c-0.082-0.096-4.648-6.095-4.648-6.095
		L2.84,8.37l7.471,6.009c0,0,0.183,0.169,0.385,0.006l10.62-8.962V0.255H18.939z"/>
	
		<radialGradient id="SVGID_11_" cx="2401.5869" cy="-888.3867" r="3.7454" gradientTransform="matrix(-0.6314 -0.7755 0.7755 -0.6314 2209.6467 1309.7159)" gradientUnits="userSpaceOnUse">
		<stop  offset="0.0773" style="stop-color:#E6F4B0"/>
		<stop  offset="0.1869" style="stop-color:#E1F2A3"/>
		<stop  offset="0.3877" style="stop-color:#D5EB82"/>
		<stop  offset="0.6571" style="stop-color:#C1E04D"/>
		<stop  offset="0.9819" style="stop-color:#A5D203"/>
		<stop  offset="0.9948" style="stop-color:#A4D100"/>
	</radialGradient>
	<circle fill="url(#SVGID_11_)" cx="5.704" cy="8.37" r="3.55"/>
	<circle fill="#91BD15" cx="7.365" cy="10.43" r="0.313"/>
	<circle fill="#91BD15" cx="6.687" cy="9.598" r="0.312"/>
	<circle fill="#91BD15" cx="6.009" cy="8.765" r="0.313"/>
	<circle fill="#91BD15" cx="5.331" cy="7.933" r="0.313"/>
	<circle fill="#91BD15" cx="4.654" cy="7.101" r="0.313"/>
	<circle fill="#91BD15" cx="3.977" cy="6.268" r="0.313"/>
	<path fill="#91BD15" d="M6.515,11.12c-0.108-0.134-0.306-0.153-0.439-0.045c-0.115,0.094-0.145,0.251-0.084,0.379
		c0.2-0.021,0.398-0.06,0.593-0.12C6.589,11.26,6.566,11.183,6.515,11.12z"/>
	<circle fill="#91BD15" cx="5.595" cy="10.486" r="0.313"/>
	<circle fill="#91BD15" cx="4.918" cy="9.654" r="0.313"/>
	<circle fill="#91BD15" cx="4.24" cy="8.822" r="0.313"/>
	<circle fill="#91BD15" cx="3.562" cy="7.99" r="0.313"/>
	<path fill="#91BD15" d="M3.083,7.399c0.135-0.108,0.154-0.306,0.046-0.44c-0.047-0.057-0.11-0.092-0.177-0.106
		c-0.1,0.18-0.18,0.369-0.241,0.562C2.821,7.491,2.973,7.489,3.083,7.399z"/>
	<path fill="#91BD15" d="M6.96,11.047c-0.063,0.051-0.099,0.12-0.111,0.194c0.155-0.063,0.307-0.14,0.452-0.229
		C7.194,10.957,7.06,10.967,6.96,11.047z"/>
	<circle fill="#91BD15" cx="6.48" cy="10.458" r="0.313"/>
	<circle fill="#91BD15" cx="5.802" cy="9.625" r="0.313"/>
	<circle fill="#91BD15" cx="5.125" cy="8.793" r="0.313"/>
	<circle fill="#91BD15" cx="4.447" cy="7.961" r="0.313"/>
	<circle fill="#91BD15" cx="3.77" cy="7.129" r="0.313"/>
	<path fill="#91BD15" d="M3.289,6.539c0.093-0.075,0.13-0.193,0.109-0.303c-0.11,0.117-0.209,0.242-0.297,0.372
		C3.167,6.606,3.234,6.584,3.289,6.539z"/>
	<path fill="#91BD15" d="M8.052,10.158c-0.101,0.082-0.136,0.211-0.104,0.327c0.117-0.124,0.222-0.257,0.315-0.396
		C8.188,10.087,8.114,10.108,8.052,10.158z"/>
	<circle fill="#91BD15" cx="7.571" cy="9.569" r="0.314"/>
	<circle fill="#91BD15" cx="6.894" cy="8.737" r="0.313"/>
	<circle fill="#91BD15" cx="6.216" cy="7.905" r="0.313"/>
	<circle fill="#91BD15" cx="5.539" cy="7.073" r="0.313"/>
	<circle fill="#91BD15" cx="4.861" cy="6.24" r="0.313"/>
	<path fill="#91BD15" d="M4.381,5.651C4.437,5.605,4.472,5.545,4.486,5.48C4.341,5.54,4.2,5.612,4.063,5.695
		C4.166,5.738,4.288,5.727,4.381,5.651z"/>
	<path fill="#91BD15" d="M8.626,8.019C8.668,8.068,8.722,8.103,8.78,8.12C8.766,7.935,8.735,7.749,8.688,7.567
		C8.683,7.571,8.676,7.573,8.672,7.578C8.538,7.687,8.518,7.884,8.626,8.019z"/>
	<path fill="#91BD15" d="M7.994,6.745C7.86,6.854,7.84,7.052,7.949,7.186C8.058,7.319,8.255,7.34,8.39,7.23
		C8.45,7.182,8.486,7.114,8.499,7.044C8.444,6.927,8.382,6.812,8.312,6.7C8.209,6.657,8.087,6.67,7.994,6.745z"/>
	<path fill="#91BD15" d="M7.316,5.913C7.183,6.022,7.163,6.22,7.272,6.354c0.109,0.134,0.306,0.154,0.44,0.045
		C7.804,6.324,7.84,6.209,7.821,6.101c-0.098-0.093-0.2-0.178-0.307-0.256C7.444,5.845,7.375,5.866,7.316,5.913z"/>
	<path fill="#91BD15" d="M7.034,5.566C7.037,5.564,7.04,5.562,7.042,5.56C6.875,5.479,6.704,5.413,6.527,5.363
		c0.008,0.056,0.029,0.111,0.067,0.158C6.704,5.656,6.9,5.676,7.034,5.566z"/>
	<path fill="#91BD15" d="M8.258,9.299c-0.134,0.108-0.155,0.306-0.045,0.44c0.051,0.062,0.121,0.099,0.195,0.11
		c0.098-0.179,0.177-0.365,0.237-0.557C8.533,9.207,8.373,9.205,8.258,9.299z"/>
	<circle fill="#91BD15" cx="7.778" cy="8.709" r="0.313"/>
	<circle fill="#91BD15" cx="7.1" cy="7.876" r="0.313"/>
	<circle fill="#91BD15" cx="6.423" cy="7.044" r="0.313"/>
	<circle fill="#91BD15" cx="5.746" cy="6.212" r="0.313"/>
	<path fill="#91BD15" d="M4.825,5.578c0.109,0.134,0.307,0.153,0.441,0.044c0.11-0.089,0.141-0.236,0.09-0.361
		c-0.203,0.021-0.403,0.062-0.6,0.122C4.756,5.451,4.778,5.521,4.825,5.578z"/>
	<path fill="#91BD15" d="M8.465,8.438C8.331,8.548,8.311,8.744,8.42,8.878c0.076,0.094,0.195,0.131,0.305,0.108
		c0.04-0.195,0.061-0.393,0.063-0.591C8.684,8.35,8.559,8.361,8.465,8.438z"/>
	<circle fill="#91BD15" cx="7.985" cy="7.849" r="0.313"/>
	<circle fill="#91BD15" cx="7.308" cy="7.017" r="0.313"/>
	<circle fill="#91BD15" cx="6.63" cy="6.184" r="0.313"/>
	<path fill="#91BD15" d="M5.71,5.55c0.109,0.134,0.306,0.154,0.44,0.045C6.24,5.521,6.278,5.407,6.26,5.301
		c-0.198-0.038-0.399-0.057-0.6-0.056C5.623,5.345,5.638,5.461,5.71,5.55z"/>
	<path fill="#91BD15" d="M4.747,11.177c-0.109-0.134-0.307-0.154-0.44-0.045c-0.005,0.005-0.01,0.01-0.015,0.014
		c0.17,0.084,0.345,0.151,0.524,0.203C4.811,11.288,4.789,11.228,4.747,11.177z"/>
	<path fill="#91BD15" d="M4.024,10.784c0.135-0.108,0.154-0.306,0.045-0.439C3.96,10.211,3.763,10.19,3.629,10.3
		c-0.093,0.075-0.13,0.193-0.108,0.303c0.094,0.092,0.194,0.175,0.297,0.251C3.889,10.855,3.963,10.835,4.024,10.784z"/>
	<path fill="#91BD15" d="M3.347,9.953C3.481,9.844,3.5,9.646,3.392,9.513s-0.306-0.154-0.44-0.046
		C2.893,9.515,2.857,9.579,2.844,9.647C2.898,9.767,2.96,9.885,3.031,9.998C3.133,10.04,3.254,10.028,3.347,9.953z"/>
	<path fill="#91BD15" d="M2.714,8.681c-0.039-0.048-0.089-0.08-0.143-0.099C2.585,8.765,2.615,8.947,2.66,9.126
		C2.663,9.124,2.666,9.122,2.669,9.12C2.803,9.011,2.823,8.814,2.714,8.681z"/>
	<path fill="#91BD15" d="M5.631,11.148c-0.109-0.134-0.306-0.153-0.44-0.045c-0.094,0.077-0.131,0.197-0.107,0.309
		c0.194,0.038,0.393,0.058,0.591,0.058C5.719,11.366,5.707,11.242,5.631,11.148z"/>
	<circle fill="#91BD15" cx="4.71" cy="10.514" r="0.313"/>
	<circle fill="#91BD15" cx="4.033" cy="9.682" r="0.313"/>
	<circle fill="#91BD15" cx="3.356" cy="8.85" r="0.313"/>
	<path fill="#91BD15" d="M2.876,8.26C3.01,8.151,3.03,7.954,2.921,7.82C2.849,7.731,2.737,7.693,2.632,7.71
		C2.59,7.906,2.567,8.106,2.565,8.308C2.666,8.348,2.786,8.334,2.876,8.26z"/>
	<circle fill="none" stroke="#A4D100" stroke-width="2.7036" stroke-miterlimit="10" cx="5.704" cy="8.37" r="3.342"/>
	<linearGradient id="SVGID_12_" gradientUnits="userSpaceOnUse" x1="21.6416" y1="21.6675" x2="21.6416" y2="-0.169">
		<stop  offset="0" style="stop-color:#2EADDB;stop-opacity:0"/>
		<stop  offset="1" style="stop-color:#15729B"/>
	</linearGradient>
	<rect x="21.142" y="0.161" fill="url(#SVGID_12_)" width="1" height="21.083"/>
</g>
<g>
	<g>
		<linearGradient id="SVGID_13_" gradientUnits="userSpaceOnUse" x1="75.2378" y1="48.9932" x2="75.2378" y2="63.3113">
			<stop  offset="0" style="stop-color:#197FB5"/>
			<stop  offset="0.0552" style="stop-color:#1887C1"/>
			<stop  offset="1" style="stop-color:#2EADDB"/>
		</linearGradient>
		<path fill="url(#SVGID_13_)" d="M2.238,69.516c-0.827,0-1.5-0.673-1.5-1.5v-18c0-0.827,0.673-1.5,1.5-1.5h146
			c0.827,0,1.5,0.673,1.5,1.5v18c0,0.827-0.673,1.5-1.5,1.5H2.238z"/>
		<path fill="#15729B" d="M148.238,49.016c0.552,0,1,0.449,1,1v18c0,0.551-0.448,1-1,1h-146c-0.551,0-1-0.449-1-1v-18
			c0-0.551,0.449-1,1-1H148.238 M148.238,48.016h-146c-1.1,0-2,0.9-2,2v18c0,1.1,0.9,2,2,2h146c1.1,0,2-0.9,2-2v-18
			C150.238,48.916,149.338,48.016,148.238,48.016L148.238,48.016z"/>
	</g>
	<g>
		<text transform="matrix(1 0 0 1 25.519 62.7676)" fill="#136A91" font-family="'Verdana'" font-size="10">Sign in with Foursquare</text>
	</g>
	
		<text transform="matrix(1 0 0 1 25.0938 62.4277)" fill="#FFFFFF" stroke="#FFFFFF" stroke-width="0.25" stroke-miterlimit="10" font-family="'Verdana'" font-size="10">Sign in with Foursquare</text>
	<g>
		<g>
			<path fill-rule="evenodd" clip-rule="evenodd" fill="#1C6FB7" d="M11.319,53.71l5.038,5.038c0.403,0.403,0.403,1.057,0,1.46
				l-5.038,5.037c-0.403,0.403-1.057,0.403-1.46,0l-5.038-5.037c-0.403-0.403-0.403-1.057,0-1.46l5.038-5.038
				C10.262,53.307,10.916,53.307,11.319,53.71z"/>
		</g>
		<defs>
			<filter id="Adobe_OpacityMaskFilter_2_" filterUnits="userSpaceOnUse" x="4.519" y="53.408" width="12.141" height="12.14">
				
					<feColorMatrix  type="matrix" values="-1 0 0 0 1  0 -1 0 0 1  0 0 -1 0 1  0 0 0 1 0" color-interpolation-filters="sRGB" result="source"/>
			</filter>
		</defs>
		<mask maskUnits="userSpaceOnUse" x="4.519" y="53.408" width="12.141" height="12.14" id="SVGID_14_">
			<g filter="url(#Adobe_OpacityMaskFilter_2_)">
				<image overflow="visible" width="17" height="18" xlink:href="51768194.jpg"  transform="matrix(1 0 0 1 2 50.5)">
				</image>
			</g>
		</mask>
		<g opacity="0.21" mask="url(#SVGID_14_)">
			<path fill-rule="evenodd" clip-rule="evenodd" d="M11.319,53.71l5.038,5.038c0.403,0.403,0.403,1.057,0,1.46l-5.038,5.037
				c-0.403,0.403-1.057,0.403-1.46,0l-5.038-5.037c-0.403-0.403-0.403-1.057,0-1.46l5.038-5.038
				C10.262,53.307,10.916,53.307,11.319,53.71z"/>
		</g>
	</g>
	<linearGradient id="SVGID_15_" gradientUnits="userSpaceOnUse" x1="10.5396" y1="48.2642" x2="10.5396" y2="58.8798">
		<stop  offset="0.0012" style="stop-color:#FFFFFF"/>
		<stop  offset="1" style="stop-color:#808080"/>
	</linearGradient>
	<path opacity="0.33" fill="url(#SVGID_15_)" d="M21.284,57.245v-8.966H-0.204v9.097c2.948,1.021,6.599,1.627,10.557,1.627
		C14.478,59.002,18.274,58.346,21.284,57.245z"/>
	<g>
		<path fill="#1F70B7" d="M18.272,48.271l-7.489,10.453c-0.267,0.37-0.503,0.024-0.503,0.024l-0.802-1.062
			c0.405-1.18,0.254-2.53-0.526-3.622c-1.283-1.795-3.776-2.21-5.571-0.928s-2.21,3.776-0.928,5.57
			c1.026,1.436,2.826,1.985,4.423,1.493l3.42,2.802c0,0,0.207,0.192,0.436,0.007l10.583-8.883v-5.855H18.272z"/>
	</g>
	
		<radialGradient id="SVGID_16_" cx="3380.0088" cy="55.9434" r="2.9075" gradientTransform="matrix(-1 0 0 1 3385.3438 0)" gradientUnits="userSpaceOnUse">
		<stop  offset="0" style="stop-color:#C51689"/>
		<stop  offset="1" style="stop-color:#781B56"/>
	</radialGradient>
	<path fill="url(#SVGID_16_)" d="M4.603,58.673c-0.385-0.009-0.75-0.091-1.086-0.23c0.528,0.522,1.248,0.854,2.049,0.873
		c1.665,0.04,3.049-1.277,3.089-2.942c0.031-1.281-0.741-2.395-1.857-2.86c0.57,0.565,0.915,1.354,0.894,2.218
		C7.652,57.397,6.268,58.714,4.603,58.673z"/>
	<path fill="#FFFFFF" d="M18.939,48.271l-8.166,11.21c-0.233,0.26-0.438,0.123-0.52,0.026c-0.082-0.096-4.648-6.095-4.648-6.095
		L2.84,56.386l7.471,6.009c0,0,0.183,0.169,0.385,0.006l10.62-8.962v-5.168H18.939z"/>
	
		<radialGradient id="SVGID_17_" cx="2364.3525" cy="-918.7021" r="3.7454" gradientTransform="matrix(-0.6314 -0.7755 0.7755 -0.6314 2209.6467 1309.7159)" gradientUnits="userSpaceOnUse">
		<stop  offset="0.0773" style="stop-color:#E6F4B0"/>
		<stop  offset="0.1869" style="stop-color:#E1F2A3"/>
		<stop  offset="0.3877" style="stop-color:#D5EB82"/>
		<stop  offset="0.6571" style="stop-color:#C1E04D"/>
		<stop  offset="0.9819" style="stop-color:#A5D203"/>
		<stop  offset="0.9948" style="stop-color:#A4D100"/>
	</radialGradient>
	<circle fill="url(#SVGID_17_)" cx="5.704" cy="56.386" r="3.55"/>
	<circle fill="#91BD15" cx="7.365" cy="58.446" r="0.313"/>
	<circle fill="#91BD15" cx="6.687" cy="57.614" r="0.312"/>
	<circle fill="#91BD15" cx="6.009" cy="56.781" r="0.313"/>
	<circle fill="#91BD15" cx="5.331" cy="55.949" r="0.313"/>
	<circle fill="#91BD15" cx="4.654" cy="55.117" r="0.313"/>
	<circle fill="#91BD15" cx="3.977" cy="54.284" r="0.313"/>
	<path fill="#91BD15" d="M6.515,59.136c-0.108-0.134-0.306-0.153-0.439-0.045c-0.115,0.094-0.145,0.251-0.084,0.379
		c0.2-0.021,0.398-0.06,0.593-0.12C6.589,59.276,6.566,59.199,6.515,59.136z"/>
	<circle fill="#91BD15" cx="5.595" cy="58.502" r="0.313"/>
	<circle fill="#91BD15" cx="4.918" cy="57.67" r="0.313"/>
	<circle fill="#91BD15" cx="4.24" cy="56.838" r="0.313"/>
	<circle fill="#91BD15" cx="3.562" cy="56.006" r="0.313"/>
	<path fill="#91BD15" d="M3.083,55.416c0.135-0.108,0.154-0.306,0.046-0.44c-0.047-0.057-0.11-0.092-0.177-0.106
		c-0.1,0.18-0.18,0.369-0.241,0.562C2.821,55.507,2.973,55.505,3.083,55.416z"/>
	<path fill="#91BD15" d="M6.96,59.063c-0.063,0.051-0.099,0.12-0.111,0.194c0.155-0.063,0.307-0.14,0.452-0.229
		C7.194,58.973,7.06,58.983,6.96,59.063z"/>
	<circle fill="#91BD15" cx="6.48" cy="58.474" r="0.313"/>
	<circle fill="#91BD15" cx="5.802" cy="57.642" r="0.313"/>
	<circle fill="#91BD15" cx="5.125" cy="56.81" r="0.313"/>
	<circle fill="#91BD15" cx="4.447" cy="55.978" r="0.313"/>
	<circle fill="#91BD15" cx="3.77" cy="55.146" r="0.313"/>
	<path fill="#91BD15" d="M3.289,54.555c0.093-0.075,0.13-0.193,0.109-0.303c-0.11,0.117-0.209,0.242-0.297,0.372
		C3.167,54.623,3.234,54.6,3.289,54.555z"/>
	<path fill="#91BD15" d="M8.052,58.174c-0.101,0.082-0.136,0.211-0.104,0.327c0.117-0.124,0.222-0.257,0.315-0.396
		C8.188,58.103,8.114,58.125,8.052,58.174z"/>
	<circle fill="#91BD15" cx="7.571" cy="57.585" r="0.314"/>
	<circle fill="#91BD15" cx="6.894" cy="56.753" r="0.313"/>
	<circle fill="#91BD15" cx="6.216" cy="55.921" r="0.313"/>
	<circle fill="#91BD15" cx="5.539" cy="55.089" r="0.313"/>
	<circle fill="#91BD15" cx="4.861" cy="54.256" r="0.313"/>
	<path fill="#91BD15" d="M4.381,53.667c0.056-0.046,0.091-0.106,0.105-0.171c-0.145,0.06-0.287,0.132-0.423,0.215
		C4.166,53.754,4.288,53.743,4.381,53.667z"/>
	<path fill="#91BD15" d="M8.626,56.035c0.042,0.05,0.096,0.084,0.153,0.102c-0.014-0.186-0.044-0.371-0.092-0.553
		c-0.005,0.004-0.012,0.006-0.016,0.011C8.538,55.703,8.518,55.9,8.626,56.035z"/>
	<path fill="#91BD15" d="M7.994,54.761c-0.134,0.109-0.154,0.307-0.045,0.44c0.109,0.134,0.307,0.154,0.441,0.045
		c0.061-0.049,0.096-0.116,0.109-0.187c-0.055-0.117-0.116-0.231-0.187-0.344C8.209,54.673,8.087,54.686,7.994,54.761z"/>
	<path fill="#91BD15" d="M7.316,53.929c-0.134,0.109-0.154,0.307-0.044,0.44c0.109,0.134,0.306,0.154,0.44,0.045
		c0.092-0.074,0.128-0.189,0.109-0.298c-0.098-0.093-0.2-0.178-0.307-0.256C7.444,53.861,7.375,53.882,7.316,53.929z"/>
	<path fill="#91BD15" d="M7.034,53.583c0.003-0.002,0.005-0.005,0.007-0.007c-0.166-0.081-0.338-0.146-0.515-0.196
		c0.008,0.056,0.029,0.111,0.067,0.158C6.704,53.672,6.9,53.692,7.034,53.583z"/>
	<path fill="#91BD15" d="M8.258,57.315c-0.134,0.108-0.155,0.306-0.045,0.44c0.051,0.062,0.121,0.099,0.195,0.11
		c0.098-0.179,0.177-0.365,0.237-0.557C8.533,57.223,8.373,57.221,8.258,57.315z"/>
	<circle fill="#91BD15" cx="7.778" cy="56.726" r="0.313"/>
	<circle fill="#91BD15" cx="7.1" cy="55.893" r="0.313"/>
	<circle fill="#91BD15" cx="6.423" cy="55.061" r="0.313"/>
	<circle fill="#91BD15" cx="5.746" cy="54.229" r="0.313"/>
	<path fill="#91BD15" d="M4.825,53.594c0.109,0.134,0.307,0.153,0.441,0.044c0.11-0.089,0.141-0.236,0.09-0.361
		c-0.203,0.021-0.403,0.062-0.6,0.122C4.756,53.467,4.778,53.537,4.825,53.594z"/>
	<path fill="#91BD15" d="M8.465,56.455c-0.134,0.109-0.155,0.306-0.045,0.439c0.076,0.094,0.195,0.131,0.305,0.108
		c0.04-0.195,0.061-0.393,0.063-0.591C8.684,56.366,8.559,56.377,8.465,56.455z"/>
	<circle fill="#91BD15" cx="7.985" cy="55.865" r="0.313"/>
	<circle fill="#91BD15" cx="7.308" cy="55.033" r="0.313"/>
	<circle fill="#91BD15" cx="6.63" cy="54.2" r="0.313"/>
	<path fill="#91BD15" d="M5.71,53.566c0.109,0.134,0.306,0.154,0.44,0.045c0.09-0.073,0.127-0.188,0.109-0.294
		c-0.198-0.038-0.399-0.057-0.6-0.056C5.623,53.361,5.638,53.477,5.71,53.566z"/>
	<path fill="#91BD15" d="M4.747,59.193c-0.109-0.134-0.307-0.154-0.44-0.045c-0.005,0.005-0.01,0.01-0.015,0.014
		c0.17,0.084,0.345,0.151,0.524,0.203C4.811,59.304,4.789,59.244,4.747,59.193z"/>
	<path fill="#91BD15" d="M4.024,58.8c0.135-0.108,0.154-0.306,0.045-0.439c-0.109-0.134-0.307-0.154-0.44-0.045
		c-0.093,0.075-0.13,0.193-0.108,0.303c0.094,0.092,0.194,0.175,0.297,0.251C3.889,58.872,3.963,58.851,4.024,58.8z"/>
	<path fill="#91BD15" d="M3.347,57.969c0.134-0.109,0.153-0.307,0.044-0.44s-0.306-0.154-0.44-0.046
		c-0.059,0.048-0.094,0.112-0.108,0.181c0.054,0.119,0.116,0.237,0.188,0.351C3.133,58.056,3.254,58.044,3.347,57.969z"/>
	<path fill="#91BD15" d="M2.714,56.697c-0.039-0.048-0.089-0.08-0.143-0.099c0.013,0.183,0.043,0.365,0.088,0.544
		c0.002-0.002,0.005-0.004,0.009-0.006C2.803,57.027,2.823,56.831,2.714,56.697z"/>
	<path fill="#91BD15" d="M5.631,59.165c-0.109-0.134-0.306-0.153-0.44-0.045c-0.094,0.077-0.131,0.197-0.107,0.309
		c0.194,0.038,0.393,0.058,0.591,0.058C5.719,59.382,5.707,59.258,5.631,59.165z"/>
	<circle fill="#91BD15" cx="4.71" cy="58.53" r="0.313"/>
	<circle fill="#91BD15" cx="4.033" cy="57.698" r="0.313"/>
	<circle fill="#91BD15" cx="3.356" cy="56.866" r="0.313"/>
	<path fill="#91BD15" d="M2.876,56.276c0.134-0.108,0.154-0.306,0.045-0.439c-0.072-0.089-0.184-0.127-0.289-0.11
		c-0.042,0.196-0.064,0.396-0.067,0.598C2.666,56.364,2.786,56.35,2.876,56.276z"/>
	<circle fill="none" stroke="#A4D100" stroke-width="2.7036" stroke-miterlimit="10" cx="5.704" cy="56.386" r="3.342"/>
	<linearGradient id="SVGID_18_" gradientUnits="userSpaceOnUse" x1="21.6416" y1="69.6836" x2="21.6416" y2="47.8471">
		<stop  offset="0" style="stop-color:#2EADDB;stop-opacity:0"/>
		<stop  offset="1" style="stop-color:#15729B"/>
	</linearGradient>
	<rect x="21.142" y="48.177" fill="url(#SVGID_18_)" width="1" height="21.083"/>
</g>
</svg>
