<?xml version="1.0" encoding="utf-8"?>
<!-- Generator: Adobe Illustrator 15.0.2, SVG Export Plug-In . SVG Version: 6.00 Build 0)  -->
<!DOCTYPE svg PUBLIC "-//W3C//DTD SVG 1.1//EN" "http://www.w3.org/Graphics/SVG/1.1/DTD/svg11.dtd">
<svg version="1.1" id="Layer_1" xmlns="http://www.w3.org/2000/svg" xmlns:xlink="http://www.w3.org/1999/xlink" x="0px" y="0px"
	 width="150.034px" height="70.016px" viewBox="0 0 150.034 70.016" enable-background="new 0 0 150.034 70.016"
	 xml:space="preserve">
<g>
	<g>
		<linearGradient id="SVGID_1_" gradientUnits="userSpaceOnUse" x1="75.2378" y1="24.9775" x2="75.2378" y2="44.7051">
			<stop  offset="0" style="stop-color:#A8D1EF"/>
			<stop  offset="0.0613" style="stop-color:#8DC3E7"/>
			<stop  offset="1" style="stop-color:#56AEE1"/>
		</linearGradient>
		<path fill="url(#SVGID_1_)" d="M2.238,45.508c-0.827,0-1.5-0.673-1.5-1.5v-18c0-0.827,0.673-1.5,1.5-1.5h146
			c0.827,0,1.5,0.673,1.5,1.5v18c0,0.827-0.673,1.5-1.5,1.5H2.238z"/>
		<path fill="#27A2CC" d="M148.238,25.008c0.552,0,1,0.449,1,1v18c0,0.551-0.448,1-1,1h-146c-0.551,0-1-0.449-1-1v-18
			c0-0.551,0.449-1,1-1H148.238 M148.238,24.008h-146c-1.1,0-2,0.9-2,2v18c0,1.1,0.9,2,2,2h146c1.1,0,2-0.9,2-2v-18
			C150.238,24.908,149.338,24.008,148.238,24.008L148.238,24.008z"/>
	</g>
	<text transform="matrix(1 0 0 1 27.0786 38.4199)" fill="#FFFFFF" font-family="'HelveticaNeue-Medium'" font-size="12">Sign in with Twitter</text>
	<linearGradient id="SVGID_2_" gradientUnits="userSpaceOnUse" x1="21.6416" y1="44.3335" x2="21.6416" y2="26.1596">
		<stop  offset="0" style="stop-color:#51B6E5;stop-opacity:0"/>
		<stop  offset="1" style="stop-color:#2AA9E0"/>
	</linearGradient>
	<rect x="21.142" y="24.169" fill="url(#SVGID_2_)" width="1" height="21.083"/>
	<path fill="#FFFFFF" d="M17.836,31.615c-0.479,0.212-0.992,0.355-1.532,0.42c0.551-0.33,0.974-0.853,1.172-1.476
		c-0.516,0.306-1.086,0.528-1.693,0.647c-0.487-0.519-1.18-0.842-1.947-0.842c-1.473,0-2.667,1.194-2.667,2.667
		c0,0.208,0.023,0.412,0.069,0.607c-2.217-0.111-4.182-1.173-5.498-2.787c-0.229,0.395-0.36,0.853-0.36,1.341
		c0,0.925,0.471,1.742,1.187,2.22C6.129,34.4,5.717,34.28,5.358,34.08c0,0.011,0,0.022,0,0.033c0,1.292,0.919,2.37,2.139,2.616
		c-0.224,0.061-0.459,0.093-0.703,0.093c-0.172,0-0.339-0.017-0.502-0.048c0.339,1.059,1.325,1.831,2.492,1.852
		c-0.914,0.715-2.063,1.142-3.312,1.142c-0.215,0-0.427-0.013-0.636-0.037c1.181,0.756,2.583,1.198,4.088,1.198
		c4.906,0,7.589-4.064,7.589-7.589c0-0.116-0.003-0.23-0.008-0.345C17.026,32.62,17.479,32.15,17.836,31.615z"/>
</g>
<g>
	<g>
		<linearGradient id="SVGID_3_" gradientUnits="userSpaceOnUse" x1="75.2378" y1="48.9858" x2="75.2378" y2="68.7134">
			<stop  offset="0" style="stop-color:#289DD0"/>
			<stop  offset="0.9387" style="stop-color:#51B6E5"/>
			<stop  offset="1" style="stop-color:#A8D1EF"/>
		</linearGradient>
		<path fill="url(#SVGID_3_)" d="M2.238,69.516c-0.827,0-1.5-0.673-1.5-1.5v-18c0-0.827,0.673-1.5,1.5-1.5h146
			c0.827,0,1.5,0.673,1.5,1.5v18c0,0.827-0.673,1.5-1.5,1.5H2.238z"/>
		<path fill="#27A2CC" d="M148.238,49.016c0.552,0,1,0.449,1,1v18c0,0.551-0.448,1-1,1h-146c-0.551,0-1-0.449-1-1v-18
			c0-0.551,0.449-1,1-1H148.238 M148.238,48.016h-146c-1.1,0-2,0.9-2,2v18c0,1.1,0.9,2,2,2h146c1.1,0,2-0.9,2-2v-18
			C150.238,48.916,149.338,48.016,148.238,48.016L148.238,48.016z"/>
	</g>
	<text transform="matrix(1 0 0 1 27.0786 62.4277)" fill="#FFFFFF" font-family="'HelveticaNeue-Medium'" font-size="12">Sign in with Twitter</text>
	<linearGradient id="SVGID_4_" gradientUnits="userSpaceOnUse" x1="21.6416" y1="68.3418" x2="21.6416" y2="50.1679">
		<stop  offset="0" style="stop-color:#51B6E5;stop-opacity:0"/>
		<stop  offset="1" style="stop-color:#2AA9E0"/>
	</linearGradient>
	<rect x="21.142" y="48.177" fill="url(#SVGID_4_)" width="1" height="21.083"/>
	<path fill="#FFFFFF" d="M17.836,55.624c-0.479,0.212-0.992,0.355-1.532,0.419c0.551-0.33,0.974-0.852,1.172-1.475
		c-0.516,0.305-1.086,0.528-1.693,0.647c-0.487-0.519-1.18-0.842-1.947-0.842c-1.473,0-2.667,1.194-2.667,2.667
		c0,0.208,0.023,0.412,0.069,0.607c-2.217-0.111-4.182-1.172-5.498-2.786c-0.229,0.394-0.36,0.853-0.36,1.341
		c0,0.925,0.471,1.742,1.187,2.22c-0.437-0.014-0.849-0.134-1.208-0.333c0,0.011,0,0.022,0,0.034c0,1.292,0.919,2.37,2.139,2.615
		c-0.224,0.061-0.459,0.093-0.703,0.093c-0.172,0-0.339-0.017-0.502-0.048c0.339,1.06,1.325,1.831,2.492,1.852
		c-0.914,0.715-2.063,1.142-3.312,1.142c-0.215,0-0.427-0.013-0.636-0.037c1.181,0.756,2.583,1.198,4.088,1.198
		c4.906,0,7.589-4.064,7.589-7.589c0-0.116-0.003-0.23-0.008-0.345C17.026,56.628,17.479,56.159,17.836,55.624z"/>
</g>
<g>
	<g>
		<linearGradient id="SVGID_5_" gradientUnits="userSpaceOnUse" x1="75.2378" y1="0.9697" x2="75.2378" y2="20.6973">
			<stop  offset="0" style="stop-color:#A8D1EF"/>
			<stop  offset="0.0613" style="stop-color:#51B6E5"/>
			<stop  offset="1" style="stop-color:#2AA9E0"/>
		</linearGradient>
		<path fill="url(#SVGID_5_)" d="M2.238,21.5c-0.827,0-1.5-0.673-1.5-1.5V2c0-0.827,0.673-1.5,1.5-1.5h146
			c0.827,0,1.5,0.673,1.5,1.5v18c0,0.827-0.673,1.5-1.5,1.5H2.238z"/>
		<path fill="#27A2CC" d="M148.238,1c0.552,0,1,0.449,1,1v18c0,0.551-0.448,1-1,1h-146c-0.551,0-1-0.449-1-1V2c0-0.551,0.449-1,1-1
			H148.238 M148.238,0h-146c-1.1,0-2,0.9-2,2v18c0,1.1,0.9,2,2,2h146c1.1,0,2-0.9,2-2V2C150.238,0.9,149.338,0,148.238,0L148.238,0z
			"/>
	</g>
	<text transform="matrix(1 0 0 1 27.0786 14.4121)" fill="#FFFFFF" font-family="'HelveticaNeue-Medium'" font-size="12">Sign in with Twitter</text>
	<linearGradient id="SVGID_6_" gradientUnits="userSpaceOnUse" x1="21.6416" y1="20.3257" x2="21.6416" y2="2.1518">
		<stop  offset="0" style="stop-color:#51B6E5;stop-opacity:0"/>
		<stop  offset="1" style="stop-color:#2AA9E0"/>
	</linearGradient>
	<rect x="21.142" y="0.161" fill="url(#SVGID_6_)" width="1" height="21.083"/>
	<path fill="#FFFFFF" d="M17.836,7.608c-0.479,0.212-0.992,0.355-1.532,0.419c0.551-0.33,0.974-0.852,1.172-1.475
		c-0.516,0.305-1.086,0.528-1.693,0.647c-0.487-0.519-1.18-0.842-1.947-0.842c-1.473,0-2.667,1.194-2.667,2.667
		c0,0.208,0.023,0.412,0.069,0.607C9.021,9.521,7.056,8.459,5.74,6.845C5.511,7.239,5.38,7.698,5.38,8.186
		c0,0.925,0.471,1.742,1.187,2.22c-0.437-0.014-0.849-0.134-1.208-0.333c0,0.011,0,0.022,0,0.034c0,1.292,0.919,2.37,2.139,2.615
		c-0.224,0.061-0.459,0.093-0.703,0.093c-0.172,0-0.339-0.017-0.502-0.048c0.339,1.06,1.325,1.831,2.492,1.852
		c-0.914,0.715-2.063,1.142-3.312,1.142c-0.215,0-0.427-0.013-0.636-0.037c1.181,0.756,2.583,1.198,4.088,1.198
		c4.906,0,7.589-4.064,7.589-7.589c0-0.116-0.003-0.23-0.008-0.345C17.026,8.612,17.479,8.143,17.836,7.608z"/>
</g>
</svg>
